<?xml version="1.0" encoding="UTF-8"?>
<svg width="16" height="16" viewBox="0 0 16 16" fill="none" xmlns="http://www.w3.org/2000/svg">
  <path d="M8 2C5.791 2 4 3.791 4 6V12C4 12.552 4.448 13 5 13C5.276 13 5.5 12.776 5.5 12.5V11.5C5.5 11.224 5.724 11 6 11C6.276 11 6.5 11.224 6.5 11.5V12.5C6.5 12.776 6.724 13 7 13C7.276 13 7.5 12.776 7.5 12.5V11.5C7.5 11.224 7.724 11 8 11C8.276 11 8.5 11.224 8.5 11.5V12.5C8.5 12.776 8.724 13 9 13C9.276 13 9.5 12.776 9.5 12.5V11.5C9.5 11.224 9.724 11 10 11C10.276 11 10.5 11.224 10.5 11.5V12.5C10.5 12.776 10.724 13 11 13C11.552 13 12 12.552 12 12V6C12 3.791 10.209 2 8 2Z" fill="#6366F1"/>
  <circle cx="6" cy="6" r="1" fill="white"/>
  <circle cx="10" cy="6" r="1" fill="white"/>
  <circle cx="6.25" cy="5.75" r="0.4" fill="#1F2937"/>
  <circle cx="10.25" cy="5.75" r="0.4" fill="#1F2937"/>
  <rect x="5" y="8" width="6" height="4" rx="0.5" fill="rgba(255,255,255,0.2)" stroke="white" stroke-width="0.25"/>
</svg>
